<svg width="500" height="500" viewBox="0 0 500 500" fill="none" xmlns="http://www.w3.org/2000/svg">
<path d="M250 458.333C201.736 446.181 161.896 418.486 130.479 375.25C99.0485 332.028 83.3333 284.028 83.3333 231.25V104.167L250 41.6667L416.667 104.167V231.25C416.667 284.028 400.958 332.028 369.542 375.25C338.111 418.486 298.264 446.181 250 458.333ZM250 414.583C283.68 404.167 311.805 383.597 334.375 352.875C356.944 322.139 370.139 287.847 373.958 250H250V85.9375L125 132.813V240.625C125 243.056 125.347 246.181 126.042 250H250V414.583Z" fill="#3DDC97"/>
</svg>
